<?xml version="1.0" encoding="utf-8"?>
<!-- Generator: Adobe Illustrator 27.9.0, SVG Export Plug-In . SVG Version: 6.00 Build 0)  -->
<svg version="1.1" id="Calque_1" xmlns="http://www.w3.org/2000/svg" xmlns:xlink="http://www.w3.org/1999/xlink" x="0px" y="0px"
	 viewBox="0 0 26.8 25.1" style="enable-background:new 0 0 26.8 25.1;" xml:space="preserve">
<style type="text/css">
	.st0{fill-rule:evenodd;clip-rule:evenodd;fill:#FFFFFF;fill-opacity:1.000000e-02;}
	.st1{fill:none;stroke:#FFFFFF;stroke-width:2;}
	.st2{fill:none;stroke:#FFFFFF;stroke-width:2;stroke-linecap:square;}
	.st3{fill:none;stroke:#131313;stroke-width:2;stroke-linecap:square;}
	.st4{fill:none;stroke:#1B1B1B;stroke-width:2;}
	.st5{fill:none;stroke:#131313;stroke-width:2;}
	.st6{fill:#1B1B1B;}
	.st7{fill-rule:evenodd;clip-rule:evenodd;fill:#1B1B1B;}
	.st8{fill:#FFFFFF;}
</style>
<g id="icons_sprite">
	<rect id="Rectangle-Copy-16" x="-5" y="-72.8" class="st0" width="24" height="24"/>
	<rect id="Rectangle-Copy-20" x="43" y="-72.8" class="st0" width="24" height="24"/>
	<rect id="Rectangle-Copy-18" x="-29" y="-72.8" class="st0" width="24" height="24"/>
	<rect id="Rectangle-Copy-21" x="19" y="-72.8" class="st0" width="24" height="24"/>
	<rect id="Rectangle-Copy-19" x="-53" y="-72.8" class="st0" width="24" height="24"/>
	<rect id="Rectangle" x="-29" y="-120.8" class="st0" width="24" height="24"/>
	<rect id="Rectangle-Copy" x="-5" y="-120.8" class="st0" width="24" height="24"/>
	<rect id="Rectangle-Copy-5" x="19" y="-96.8" class="st0" width="24" height="24"/>
	<rect id="Rectangle-Copy-13" x="-29" y="-96.8" class="st0" width="24" height="24"/>
	<g id="Group-3" transform="translate(96.000000, 24.000000)">
		<rect id="Rectangle-Copy-7" x="-53" y="-120.8" class="st0" width="24" height="24"/>
		<g id="Cart-Button" transform="translate(1.000000, 1.000000)">
			<polyline id="Path" class="st1" points="-53,-120.8 -50.5,-117.8 -50.5,-108.8 -52,-105.2 -31,-105.2 			"/>
			<polyline id="Path_00000050651621683999864240000003092836985420851105_" class="st1" points="-50.3,-118.1 -32.9,-118.1 
				-35.8,-108.9 -50.3,-108.9 			"/>
			<circle id="Oval" class="st2" cx="-50.3" cy="-100.6" r="1.8"/>
			<circle id="Oval_00000105413026987253985260000011691554380403980173_" class="st2" cx="-33.8" cy="-100.6" r="1.8"/>
		</g>
	</g>
	<rect id="Rectangle-Copy-15" x="-5" y="-96.8" class="st0" width="24" height="24"/>
	<polyline id="Path_00000115513214997095353660000007022819137212488581_" class="st3" points="-13,-86.8 -17,-82.8 -21,-86.8 	"/>
	<polyline id="Path-Copy" class="st3" points="11,-82.8 7,-86.8 3,-82.8 	"/>
	<circle id="Knob---Left" class="st4" cx="31" cy="-84.8" r="7"/>
	<rect id="Rectangle-Copy-17" x="-53" y="-120.8" class="st0" width="24" height="24"/>
	<rect id="Rectangle-Copy-3" x="43" y="-120.8" class="st0" width="24" height="24"/>
	<rect id="Rectangle-Copy-2" x="19" y="-120.8" class="st0" width="24" height="24"/>
	<g id="Group" transform="translate(0.000000, 24.000000)">
		<rect id="Rectangle-Copy-4" x="-53" y="-120.8" class="st0" width="24" height="24"/>
		<g id="Search" transform="translate(2.000000, 2.000000)">
			<line id="Path_00000165201102517214171850000004772296020657151651_" class="st3" x1="-33" y1="-100.8" x2="-39" y2="-106.8"/>
			<circle id="Oval_00000171679871227605638930000000194080477362088879_" class="st3" cx="-45" cy="-112.8" r="8"/>
		</g>
	</g>
	<g id="Cart-Button_00000102527585298571912960000017168155965313657755_" transform="translate(1.000000, 1.000000)">
		<polyline id="Path_00000119092541075565740060000007726232457809539492_" class="st5" points="-118.6,-112.8 -116.1,-109.8 
			-116.1,-100.8 -117.6,-97.2 -96.6,-97.2 		"/>
		<polyline id="Path_00000150804563628959307260000000376122485240504462_" class="st5" points="-115.9,-110.1 -98.5,-110.1 
			-101.5,-100.9 -115.9,-100.9 		"/>
		<circle id="Oval_00000100357378569137942010000014587165486438423168_" class="st3" cx="-115.9" cy="-92.6" r="1.8"/>
		<circle id="Oval_00000036949523811968769040000007750196923404905906_" class="st3" cx="-99.4" cy="-92.6" r="1.8"/>
	</g>
	<path id="Combined-Shape" class="st6" d="M42-102.8c0.6,0,1,0.4,1,1s-0.4,1-1,1H20c-0.6,0-1-0.4-1-1s0.4-1,1-1H42z M42-109.8
		c0.6,0,1,0.4,1,1s-0.4,1-1,1H20c-0.6,0-1-0.4-1-1s0.4-1,1-1H42z M42-116.8c0.6,0,1,0.4,1,1s-0.4,1-1,1H20c-0.6,0-1-0.4-1-1
		s0.4-1,1-1H42z"/>
	<polyline id="Arrow" class="st3" points="20.5,10 13.1,18.1 5.6,10 	"/>
	<polyline id="Arrow-Copy" class="st3" points="15,-104.8 7,-112.8 -1,-104.8 	"/>
	<g id="Add-to-Cart-Button" transform="translate(97.000000, 1.000000)">
		<polyline id="Path_00000011715487082616754280000003716235980343802258_" class="st5" points="-53,-120.8 -50.5,-117.8 
			-50.5,-108.8 -52,-105.2 -31,-105.2 		"/>
		<polyline id="Path_00000055702167571071150860000016701926587584206744_" class="st5" points="-50.3,-118.1 -32.9,-118.1 
			-35.8,-108.9 -50.3,-108.9 		"/>
		<circle id="Oval_00000130625848652232536810000013292981035974034826_" class="st3" cx="-50.3" cy="-100.6" r="1.8"/>
		<circle id="Oval_00000009577806234006809390000016918224093237295535_" class="st3" cx="-33.8" cy="-100.6" r="1.8"/>
		
			<rect id="Rectangle_00000008119996688990760050000003473873348301289128_" x="-42.9" y="-116.2" class="st7" width="1.8" height="5.5"/>
		<polygon id="Rectangle_00000093165524391797061090000009659217276075724707_" class="st7" points="-39.3,-114.4 -39.3,-112.6 
			-44.8,-112.6 -44.8,-114.4 		"/>
	</g>
	<g id="Group-2" transform="translate(3.000000, 51.000000)">
		<path id="Combined-Shape_00000151512133559314534120000016133952984179462070_" class="st8" d="M-35.7-120.5c0.4,0.4,0.4,1,0,1.4
			l-7.1,7.1l7.1,7.1c0.4,0.4,0.4,1,0,1.4s-1,0.4-1.4,0l-7.1-7.1l-7.1,7.1c-0.4,0.4-1,0.4-1.4,0s-0.4-1,0-1.4l7.1-7.1l-7.1-7.1
			c-0.4-0.4-0.4-1,0-1.4s1-0.4,1.4,0l7.1,7.1l7.1-7.1C-36.7-120.9-36.2-120.9-35.7-120.5z"/>
	</g>
</g>
</svg>
